<mxfile host="app.diagrams.net" modified="2021-11-11T03:43:26.936Z" agent="5.0 (Macintosh; Intel Mac OS X 10_15_7) AppleWebKit/537.36 (KHTML, like Gecko) Chrome/95.0.4638.69 Safari/537.36" etag="nwUzFvnM4UgKGLGhC14r" version="15.7.2" type="github">
  <diagram id="Sh9ZN9qXcryNvB_XNzxi" name="Page-1">
    <mxGraphModel dx="1298" dy="808" grid="1" gridSize="10" guides="1" tooltips="1" connect="1" arrows="1" fold="1" page="1" pageScale="1" pageWidth="827" pageHeight="1169" math="0" shadow="0">
      <root>
        <mxCell id="0" />
        <mxCell id="1" parent="0" />
        <mxCell id="Uivm2bNcq1ei9wYF2XW2-1" value="上层业务服务" style="shape=umlLifeline;perimeter=lifelinePerimeter;whiteSpace=wrap;html=1;container=1;collapsible=0;recursiveResize=0;outlineConnect=0;" vertex="1" parent="1">
          <mxGeometry x="120" y="130" width="100" height="1980" as="geometry" />
        </mxCell>
        <mxCell id="Uivm2bNcq1ei9wYF2XW2-8" value="" style="html=1;points=[];perimeter=orthogonalPerimeter;" vertex="1" parent="Uivm2bNcq1ei9wYF2XW2-1">
          <mxGeometry x="40" y="520" width="10" height="40" as="geometry" />
        </mxCell>
        <mxCell id="Uivm2bNcq1ei9wYF2XW2-9" value="3 发起创建课程，逻辑在业务服务" style="edgeStyle=orthogonalEdgeStyle;html=1;align=left;spacingLeft=2;endArrow=block;rounded=0;entryX=1;entryY=0;" edge="1" target="Uivm2bNcq1ei9wYF2XW2-8" parent="Uivm2bNcq1ei9wYF2XW2-1">
          <mxGeometry relative="1" as="geometry">
            <mxPoint x="45" y="500" as="sourcePoint" />
            <Array as="points">
              <mxPoint x="75" y="500" />
            </Array>
          </mxGeometry>
        </mxCell>
        <mxCell id="Uivm2bNcq1ei9wYF2XW2-21" value="" style="html=1;points=[];perimeter=orthogonalPerimeter;" vertex="1" parent="Uivm2bNcq1ei9wYF2XW2-1">
          <mxGeometry x="40" y="110" width="10" height="40" as="geometry" />
        </mxCell>
        <mxCell id="Uivm2bNcq1ei9wYF2XW2-22" value="1 添加学校" style="edgeStyle=orthogonalEdgeStyle;html=1;align=left;spacingLeft=2;endArrow=block;rounded=0;entryX=1;entryY=0;" edge="1" target="Uivm2bNcq1ei9wYF2XW2-21" parent="Uivm2bNcq1ei9wYF2XW2-1">
          <mxGeometry relative="1" as="geometry">
            <mxPoint x="45" y="90" as="sourcePoint" />
            <Array as="points">
              <mxPoint x="75" y="90" />
            </Array>
          </mxGeometry>
        </mxCell>
        <mxCell id="Uivm2bNcq1ei9wYF2XW2-37" value="" style="html=1;points=[];perimeter=orthogonalPerimeter;" vertex="1" parent="Uivm2bNcq1ei9wYF2XW2-1">
          <mxGeometry x="40" y="880" width="10" height="40" as="geometry" />
        </mxCell>
        <mxCell id="Uivm2bNcq1ei9wYF2XW2-38" value="4 用户购买课程" style="edgeStyle=orthogonalEdgeStyle;html=1;align=left;spacingLeft=2;endArrow=block;rounded=0;entryX=1;entryY=0;" edge="1" target="Uivm2bNcq1ei9wYF2XW2-37" parent="Uivm2bNcq1ei9wYF2XW2-1">
          <mxGeometry relative="1" as="geometry">
            <mxPoint x="45" y="860" as="sourcePoint" />
            <Array as="points">
              <mxPoint x="75" y="860" />
            </Array>
          </mxGeometry>
        </mxCell>
        <mxCell id="Uivm2bNcq1ei9wYF2XW2-2" value="内部售卖平台服务" style="shape=umlLifeline;perimeter=lifelinePerimeter;whiteSpace=wrap;html=1;container=1;collapsible=0;recursiveResize=0;outlineConnect=0;" vertex="1" parent="1">
          <mxGeometry x="727" y="130" width="100" height="1850" as="geometry" />
        </mxCell>
        <mxCell id="Uivm2bNcq1ei9wYF2XW2-18" value="" style="html=1;points=[];perimeter=orthogonalPerimeter;" vertex="1" parent="Uivm2bNcq1ei9wYF2XW2-2">
          <mxGeometry x="45" y="640" width="10" height="80" as="geometry" />
        </mxCell>
        <mxCell id="Uivm2bNcq1ei9wYF2XW2-20" value="return sku_id" style="html=1;verticalAlign=bottom;endArrow=open;dashed=1;endSize=8;exitX=0;exitY=0.95;rounded=0;" edge="1" source="Uivm2bNcq1ei9wYF2XW2-18" parent="Uivm2bNcq1ei9wYF2XW2-2">
          <mxGeometry relative="1" as="geometry">
            <mxPoint x="-25" y="716" as="targetPoint" />
          </mxGeometry>
        </mxCell>
        <mxCell id="Uivm2bNcq1ei9wYF2XW2-23" value="" style="html=1;points=[];perimeter=orthogonalPerimeter;" vertex="1" parent="Uivm2bNcq1ei9wYF2XW2-2">
          <mxGeometry x="45" y="140" width="10" height="130" as="geometry" />
        </mxCell>
        <mxCell id="Uivm2bNcq1ei9wYF2XW2-25" value="店铺绑定学校ID，业务查询仅通过学校ID" style="html=1;verticalAlign=bottom;endArrow=open;dashed=1;endSize=8;exitX=0;exitY=0.95;rounded=0;" edge="1" source="Uivm2bNcq1ei9wYF2XW2-23" parent="Uivm2bNcq1ei9wYF2XW2-2">
          <mxGeometry relative="1" as="geometry">
            <mxPoint x="-17" y="264" as="targetPoint" />
          </mxGeometry>
        </mxCell>
        <mxCell id="Uivm2bNcq1ei9wYF2XW2-29" value="" style="html=1;points=[];perimeter=orthogonalPerimeter;" vertex="1" parent="Uivm2bNcq1ei9wYF2XW2-2">
          <mxGeometry x="50" y="217" width="10" height="23" as="geometry" />
        </mxCell>
        <mxCell id="Uivm2bNcq1ei9wYF2XW2-30" value="1.3 记录学校和店铺的绑定关系" style="edgeStyle=orthogonalEdgeStyle;html=1;align=left;spacingLeft=2;endArrow=block;rounded=0;entryX=1;entryY=0;exitX=1;exitY=0.462;exitDx=0;exitDy=0;exitPerimeter=0;" edge="1" target="Uivm2bNcq1ei9wYF2XW2-29" parent="Uivm2bNcq1ei9wYF2XW2-2" source="Uivm2bNcq1ei9wYF2XW2-23">
          <mxGeometry relative="1" as="geometry">
            <mxPoint x="55" y="220" as="sourcePoint" />
            <Array as="points">
              <mxPoint x="85" y="200" />
              <mxPoint x="85" y="217" />
            </Array>
          </mxGeometry>
        </mxCell>
        <mxCell id="Uivm2bNcq1ei9wYF2XW2-42" value="" style="html=1;points=[];perimeter=orthogonalPerimeter;" vertex="1" parent="Uivm2bNcq1ei9wYF2XW2-2">
          <mxGeometry x="45" y="1010" width="10" height="50" as="geometry" />
        </mxCell>
        <mxCell id="Uivm2bNcq1ei9wYF2XW2-44" value="return 已购课程ID列表" style="html=1;verticalAlign=bottom;endArrow=open;dashed=1;endSize=8;rounded=0;" edge="1" source="Uivm2bNcq1ei9wYF2XW2-42" parent="Uivm2bNcq1ei9wYF2XW2-2">
          <mxGeometry relative="1" as="geometry">
            <mxPoint x="-37" y="1060" as="targetPoint" />
          </mxGeometry>
        </mxCell>
        <mxCell id="Uivm2bNcq1ei9wYF2XW2-3" value="售卖中台" style="shape=umlLifeline;perimeter=lifelinePerimeter;whiteSpace=wrap;html=1;container=1;collapsible=0;recursiveResize=0;outlineConnect=0;" vertex="1" parent="1">
          <mxGeometry x="1080" y="130" width="100" height="2040" as="geometry" />
        </mxCell>
        <mxCell id="Uivm2bNcq1ei9wYF2XW2-26" value="" style="html=1;points=[];perimeter=orthogonalPerimeter;" vertex="1" parent="Uivm2bNcq1ei9wYF2XW2-3">
          <mxGeometry x="45" y="160" width="10" height="30" as="geometry" />
        </mxCell>
        <mxCell id="Uivm2bNcq1ei9wYF2XW2-31" value="" style="html=1;points=[];perimeter=orthogonalPerimeter;" vertex="1" parent="Uivm2bNcq1ei9wYF2XW2-3">
          <mxGeometry x="45" y="660" width="10" height="30" as="geometry" />
        </mxCell>
        <mxCell id="Uivm2bNcq1ei9wYF2XW2-4" value="内部课程管理系统" style="shape=umlLifeline;perimeter=lifelinePerimeter;whiteSpace=wrap;html=1;container=1;collapsible=0;recursiveResize=0;outlineConnect=0;" vertex="1" parent="1">
          <mxGeometry x="414" y="130" width="100" height="1880" as="geometry" />
        </mxCell>
        <mxCell id="Uivm2bNcq1ei9wYF2XW2-5" value="" style="html=1;points=[];perimeter=orthogonalPerimeter;" vertex="1" parent="Uivm2bNcq1ei9wYF2XW2-4">
          <mxGeometry x="45" y="350" width="10" height="80" as="geometry" />
        </mxCell>
        <mxCell id="Uivm2bNcq1ei9wYF2XW2-7" value="return" style="html=1;verticalAlign=bottom;endArrow=open;dashed=1;endSize=8;exitX=0;exitY=0.95;rounded=0;" edge="1" source="Uivm2bNcq1ei9wYF2XW2-5" parent="Uivm2bNcq1ei9wYF2XW2-4">
          <mxGeometry relative="1" as="geometry">
            <mxPoint x="-25" y="426" as="targetPoint" />
          </mxGeometry>
        </mxCell>
        <mxCell id="Uivm2bNcq1ei9wYF2XW2-15" value="" style="html=1;points=[];perimeter=orthogonalPerimeter;" vertex="1" parent="Uivm2bNcq1ei9wYF2XW2-4">
          <mxGeometry x="45" y="540" width="10" height="30" as="geometry" />
        </mxCell>
        <mxCell id="Uivm2bNcq1ei9wYF2XW2-17" value="返回课程ID" style="html=1;verticalAlign=bottom;endArrow=open;dashed=1;endSize=8;exitX=0;exitY=0.95;rounded=0;" edge="1" source="Uivm2bNcq1ei9wYF2XW2-15" parent="Uivm2bNcq1ei9wYF2XW2-4">
          <mxGeometry relative="1" as="geometry">
            <mxPoint x="-25" y="569" as="targetPoint" />
          </mxGeometry>
        </mxCell>
        <mxCell id="Uivm2bNcq1ei9wYF2XW2-34" value="" style="html=1;points=[];perimeter=orthogonalPerimeter;" vertex="1" parent="Uivm2bNcq1ei9wYF2XW2-4">
          <mxGeometry x="45" y="720" width="10" height="50" as="geometry" />
        </mxCell>
        <mxCell id="Uivm2bNcq1ei9wYF2XW2-39" value="" style="html=1;points=[];perimeter=orthogonalPerimeter;" vertex="1" parent="Uivm2bNcq1ei9wYF2XW2-4">
          <mxGeometry x="45" y="940" width="10" height="50" as="geometry" />
        </mxCell>
        <mxCell id="Uivm2bNcq1ei9wYF2XW2-41" value="return course list" style="html=1;verticalAlign=bottom;endArrow=open;dashed=1;endSize=8;exitX=0;exitY=0.95;rounded=0;" edge="1" source="Uivm2bNcq1ei9wYF2XW2-39" parent="Uivm2bNcq1ei9wYF2XW2-4">
          <mxGeometry relative="1" as="geometry">
            <mxPoint x="-25" y="988" as="targetPoint" />
          </mxGeometry>
        </mxCell>
        <mxCell id="Uivm2bNcq1ei9wYF2XW2-6" value="2. 查询课程资源" style="html=1;verticalAlign=bottom;endArrow=block;entryX=0;entryY=0;rounded=0;" edge="1" target="Uivm2bNcq1ei9wYF2XW2-5" parent="1">
          <mxGeometry relative="1" as="geometry">
            <mxPoint x="169.5" y="480.0000000000001" as="sourcePoint" />
          </mxGeometry>
        </mxCell>
        <mxCell id="Uivm2bNcq1ei9wYF2XW2-16" value="3.1 创建课程（&lt;b&gt;状态为信息初始化状态&lt;/b&gt;）" style="html=1;verticalAlign=bottom;endArrow=block;entryX=0;entryY=0;rounded=0;" edge="1" target="Uivm2bNcq1ei9wYF2XW2-15" parent="1" source="Uivm2bNcq1ei9wYF2XW2-8">
          <mxGeometry relative="1" as="geometry">
            <mxPoint x="389" y="670" as="sourcePoint" />
          </mxGeometry>
        </mxCell>
        <mxCell id="Uivm2bNcq1ei9wYF2XW2-19" value="3.2 创建sku &lt;br&gt;（传课程ID）&lt;br&gt;（&lt;b&gt;如果合班 售卖中记录的sku对应的课程ID修改， 学生订单信息中也修改， 流水就不用修改了&lt;/b&gt;）" style="html=1;verticalAlign=bottom;endArrow=block;entryX=0;entryY=0;rounded=0;" edge="1" target="Uivm2bNcq1ei9wYF2XW2-18" parent="1">
          <mxGeometry relative="1" as="geometry">
            <mxPoint x="169.5" y="770" as="sourcePoint" />
          </mxGeometry>
        </mxCell>
        <mxCell id="Uivm2bNcq1ei9wYF2XW2-24" value="1.1 创建店铺" style="html=1;verticalAlign=bottom;endArrow=block;entryX=0;entryY=0;rounded=0;" edge="1" target="Uivm2bNcq1ei9wYF2XW2-23" parent="1" source="Uivm2bNcq1ei9wYF2XW2-1">
          <mxGeometry relative="1" as="geometry">
            <mxPoint x="702" y="270" as="sourcePoint" />
          </mxGeometry>
        </mxCell>
        <mxCell id="Uivm2bNcq1ei9wYF2XW2-27" value="1.2 创建店铺" style="html=1;verticalAlign=bottom;endArrow=block;entryX=0;entryY=0;rounded=0;" edge="1" target="Uivm2bNcq1ei9wYF2XW2-26" parent="1" source="Uivm2bNcq1ei9wYF2XW2-23">
          <mxGeometry relative="1" as="geometry">
            <mxPoint x="1055" y="290" as="sourcePoint" />
          </mxGeometry>
        </mxCell>
        <mxCell id="Uivm2bNcq1ei9wYF2XW2-28" value="return 店铺ID" style="html=1;verticalAlign=bottom;endArrow=open;dashed=1;endSize=8;exitX=0;exitY=0.95;rounded=0;" edge="1" source="Uivm2bNcq1ei9wYF2XW2-26" parent="1" target="Uivm2bNcq1ei9wYF2XW2-23">
          <mxGeometry relative="1" as="geometry">
            <mxPoint x="1055" y="366" as="targetPoint" />
          </mxGeometry>
        </mxCell>
        <mxCell id="Uivm2bNcq1ei9wYF2XW2-32" value="3.3 在学校店铺下创建sku" style="html=1;verticalAlign=bottom;endArrow=block;entryX=0;entryY=0;rounded=0;exitX=1.1;exitY=0.275;exitDx=0;exitDy=0;exitPerimeter=0;" edge="1" target="Uivm2bNcq1ei9wYF2XW2-31" parent="1" source="Uivm2bNcq1ei9wYF2XW2-18">
          <mxGeometry relative="1" as="geometry">
            <mxPoint x="1055" y="790" as="sourcePoint" />
          </mxGeometry>
        </mxCell>
        <mxCell id="Uivm2bNcq1ei9wYF2XW2-33" value="return sku_id" style="html=1;verticalAlign=bottom;endArrow=open;dashed=1;endSize=8;exitX=0;exitY=0.95;rounded=0;" edge="1" source="Uivm2bNcq1ei9wYF2XW2-31" parent="1" target="Uivm2bNcq1ei9wYF2XW2-18">
          <mxGeometry relative="1" as="geometry">
            <mxPoint x="1055" y="866" as="targetPoint" />
          </mxGeometry>
        </mxCell>
        <mxCell id="Uivm2bNcq1ei9wYF2XW2-35" value="3.4 sku创建成功（&lt;b&gt;修改课程的状态为商品创建成功）&lt;/b&gt;" style="html=1;verticalAlign=bottom;endArrow=block;entryX=0;entryY=0;rounded=0;" edge="1" target="Uivm2bNcq1ei9wYF2XW2-34" parent="1" source="Uivm2bNcq1ei9wYF2XW2-1">
          <mxGeometry relative="1" as="geometry">
            <mxPoint x="389" y="850" as="sourcePoint" />
          </mxGeometry>
        </mxCell>
        <mxCell id="Uivm2bNcq1ei9wYF2XW2-40" value="4.1 查询可购买课程" style="html=1;verticalAlign=bottom;endArrow=block;entryX=0;entryY=0;rounded=0;" edge="1" target="Uivm2bNcq1ei9wYF2XW2-39" parent="1" source="Uivm2bNcq1ei9wYF2XW2-1">
          <mxGeometry relative="1" as="geometry">
            <mxPoint x="389" y="1070" as="sourcePoint" />
          </mxGeometry>
        </mxCell>
        <mxCell id="Uivm2bNcq1ei9wYF2XW2-43" value="4.2 查询已购买课程" style="html=1;verticalAlign=bottom;endArrow=block;entryX=0;entryY=0;rounded=0;" edge="1" target="Uivm2bNcq1ei9wYF2XW2-42" parent="1" source="Uivm2bNcq1ei9wYF2XW2-1">
          <mxGeometry relative="1" as="geometry">
            <mxPoint x="702" y="1140" as="sourcePoint" />
          </mxGeometry>
        </mxCell>
      </root>
    </mxGraphModel>
  </diagram>
</mxfile>
